<?xml version="1.0" standalone="no"?>
<!DOCTYPE svg PUBLIC "-//W3C//DTD SVG 20010904//EN"
 "http://www.w3.org/TR/2001/REC-SVG-20010904/DTD/svg10.dtd">
<svg version="1.0" xmlns="http://www.w3.org/2000/svg"
 width="500.000000pt" height="500.000000pt" viewBox="0 0 500.000000 500.000000"
 preserveAspectRatio="xMidYMid meet">
<metadata>
Created by potrace 1.11, written by Peter Selinger 2001-2013
</metadata>
<g transform="translate(0.000000,500.000000) scale(0.100000,-0.100000)"
fill="#000000" stroke="none">
<path d="M2329 4936 c-2 -2 -38 -6 -79 -10 -65 -5 -127 -15 -265 -41 -16 -3
-64 -15 -105 -26 -41 -11 -82 -21 -90 -23 -30 -8 -216 -77 -255 -95 -22 -10
-42 -19 -45 -19 -13 0 -268 -138 -280 -152 -7 -7 -41 -29 -60 -37 -18 -8 -213
-156 -253 -192 -48 -44 -200 -196 -232 -233 -87 -101 -212 -269 -237 -318 -7
-14 -26 -47 -43 -75 -97 -157 -217 -458 -261 -656 -17 -78 -23 -111 -30 -154
-3 -22 -7 -47 -9 -55 -25 -98 -26 -525 -1 -690 29 -196 109 -487 160 -585 9
-16 16 -34 16 -38 0 -25 155 -319 171 -325 5 -2 9 -8 9 -13 0 -10 100 -159
126 -189 8 -8 48 -55 89 -104 98 -114 262 -272 337 -324 13 -9 28 -20 33 -24
55 -44 193 -138 202 -138 4 0 14 -6 22 -14 20 -17 181 -101 279 -144 107 -48
324 -120 410 -137 9 -2 51 -10 92 -18 180 -37 301 -46 530 -42 136 3 231 10
315 24 145 25 148 26 205 42 25 6 52 13 60 14 29 4 215 67 224 76 6 5 16 9 24
9 8 0 28 6 45 14 147 67 193 90 199 100 4 6 8 8 8 4 0 -4 23 6 50 22 28 17 55
30 59 30 5 0 15 7 22 16 7 9 22 20 34 25 23 10 58 31 65 40 3 3 28 21 55 39
28 19 55 39 62 45 7 5 18 15 25 20 135 104 315 287 422 427 53 69 156 226 156
238 0 5 4 10 10 10 5 0 12 11 16 25 3 14 10 25 15 25 5 0 9 9 9 20 0 11 4 20
9 20 5 0 18 22 29 48 12 27 37 82 56 124 92 200 173 507 194 738 9 99 9 373 0
480 -25 287 -132 644 -268 895 -54 101 -84 150 -92 153 -4 2 -8 8 -8 14 0 6
-11 26 -25 44 -14 18 -25 37 -25 43 0 6 -3 11 -7 11 -5 0 -21 20 -36 45 -16
25 -32 45 -36 45 -4 0 -14 13 -24 29 -34 59 -340 371 -363 371 -4 0 -35 24
-58 45 -6 6 -47 35 -91 65 -44 30 -82 57 -85 60 -3 3 -16 11 -30 19 -14 8 -47
27 -75 43 -115 65 -374 181 -432 193 -10 2 -31 8 -47 14 -27 11 -199 54 -256
65 -14 3 -34 7 -45 9 -11 3 -47 8 -80 12 -33 4 -71 9 -85 12 -30 5 -426 14
-431 9z"/>
</g>
</svg>
